<svg width="37" height="37" viewBox="0 0 37 37" fill="none" xmlns="http://www.w3.org/2000/svg">
<path fill-rule="evenodd" clip-rule="evenodd" d="M29.2625 13.714C29.2625 13.4469 29.1279 13.313 28.8586 13.313C28.8053 13.313 28.7578 13.3166 28.7153 13.3231C28.6729 13.3288 28.6253 13.3403 28.5742 13.3555C28.5584 13.3605 28.5461 13.3583 28.5361 13.3504C28.5267 13.3411 28.5217 13.3281 28.5217 13.3108L28.5339 12.5548C28.5339 12.5217 28.5368 12.5023 28.5418 12.4965C28.5469 12.4907 28.5634 12.4879 28.5929 12.4879H29.3086C29.3288 12.4879 29.3374 12.4994 29.3374 12.5217V12.5995C29.3374 12.6218 29.3288 12.6333 29.3086 12.6333H28.6772C28.6757 12.7327 28.6736 12.8299 28.6714 12.9242C28.6693 13.0192 28.6678 13.1164 28.6664 13.2158C28.7348 13.1863 28.8176 13.1711 28.9155 13.1711C29.0617 13.1711 29.1805 13.2158 29.2712 13.3065C29.3619 13.3994 29.4073 13.5239 29.4073 13.6809C29.4073 13.8724 29.3547 14.02 29.2496 14.1244C29.1502 14.2238 29.012 14.2735 28.8377 14.2735C28.7751 14.2735 28.7204 14.2691 28.675 14.2612C28.6282 14.254 28.5814 14.2403 28.5317 14.2216C28.5123 14.2137 28.5029 14.1993 28.5029 14.1791V14.0791C28.5029 14.0524 28.5123 14.0438 28.5317 14.0553C28.5829 14.0827 28.6318 14.1014 28.6793 14.1122C28.7283 14.123 28.7801 14.1287 28.8377 14.1287C28.9609 14.1287 29.0602 14.0949 29.1373 14.0272C29.2208 13.9538 29.2625 13.8501 29.2625 13.714ZM21.5801 14.2238V12.6823C21.5369 12.724 21.4966 12.7622 21.4584 12.7989C21.4203 12.8349 21.3814 12.8738 21.3389 12.9148C21.3245 12.9292 21.3101 12.9278 21.2972 12.9105L21.2554 12.8536C21.2511 12.845 21.2489 12.8371 21.2489 12.8284C21.2489 12.8198 21.2525 12.8126 21.2597 12.8061L21.5844 12.4979C21.5902 12.4915 21.5981 12.4879 21.6089 12.4879H21.6658C21.6953 12.4879 21.7126 12.4907 21.7176 12.4965C21.722 12.5023 21.7241 12.5217 21.7241 12.5548V14.2238C21.7241 14.2461 21.7148 14.2569 21.6953 14.2569H21.6089C21.5902 14.2569 21.5801 14.2461 21.5801 14.2238ZM13.8949 13.3699C13.8949 12.8738 14.0151 12.6261 14.2549 12.6261C14.4953 12.6261 14.6149 12.8738 14.6149 13.3699C14.6149 13.8681 14.4953 14.1172 14.2549 14.1172C14.0151 14.1172 13.8949 13.8681 13.8949 13.3699ZM14.7661 13.3699C14.7661 13.2439 14.7574 13.1308 14.7409 13.0315C14.7243 12.9314 14.6998 12.8435 14.6674 12.7658C14.581 12.5714 14.4435 12.4742 14.2549 12.4742C14.0641 12.4742 13.9258 12.5714 13.8409 12.7658C13.7739 12.9206 13.7401 13.1222 13.7401 13.3699C13.7401 13.9682 13.9121 14.2663 14.2549 14.2663C14.5954 14.2663 14.7661 13.9682 14.7661 13.3699ZM6.76685 13.6571C7.02389 13.3425 7.15205 13.1042 7.15205 12.9407C7.15205 12.8464 7.12397 12.7672 7.06853 12.7039C7.01453 12.6427 6.94613 12.6117 6.86549 12.6117C6.75245 12.6117 6.63437 12.647 6.51125 12.7183C6.49253 12.7291 6.48101 12.724 6.47813 12.7039L6.46517 12.6261C6.46157 12.5987 6.46805 12.5822 6.48677 12.5757C6.55733 12.5397 6.62213 12.5131 6.67901 12.4951C6.73589 12.4778 6.79493 12.4691 6.85469 12.4691C6.98861 12.4691 7.09589 12.5073 7.17509 12.5829C7.26437 12.665 7.30901 12.7823 7.30901 12.9343C7.30901 12.9926 7.29677 13.0567 7.27157 13.1265C7.24637 13.1956 7.21181 13.2683 7.16717 13.3439C7.13909 13.3886 7.09949 13.4462 7.04837 13.5175C6.99797 13.588 6.93965 13.6643 6.87341 13.7443C6.82445 13.8047 6.77693 13.8652 6.72869 13.9271C6.68045 13.9891 6.63149 14.0495 6.58253 14.11H7.31549C7.33493 14.11 7.34501 14.1208 7.34501 14.1431V14.2238C7.34501 14.2461 7.33493 14.2569 7.31549 14.2569H6.46157C6.44645 14.2569 6.43421 14.2562 6.42701 14.2555C6.41909 14.2547 6.41333 14.2526 6.40973 14.249C6.40685 14.2447 6.40469 14.2382 6.40397 14.2295C6.40325 14.2209 6.40253 14.2079 6.40253 14.1907L6.40469 14.1381C6.40469 14.1179 6.41045 14.1014 6.42125 14.0884L6.76685 13.6571ZM27.1234 19.8002L28.3201 16.306L29.4368 19.8002H27.1234ZM29.6146 22.7608H31.8027V22.4347L31.0553 22.2208L28.8428 15.5313L28.8399 15.5227H28.0875L25.7295 22.2007L25.0527 22.4152V22.7608H26.9247V22.4145L26.2853 22.2223L26.9413 20.3128H29.5873L30.1834 22.223L29.6146 22.4354V22.7608ZM20.5419 22.385L21.1539 22.1711L20.9221 16.7078L18.3272 22.7608H17.9535L17.9506 22.7536L15.5833 16.7308L15.301 22.151L16.0253 22.3843V22.7608H14.0612V22.385L14.0691 22.3821L14.7351 22.151L15.0303 16L14.5717 15.8171V15.5227H15.9296L15.9325 15.5306L18.2278 21.5066L20.7507 15.5227H22.1381V15.8481L21.6385 16.031L21.9135 22.1711L22.5874 22.3843V22.7608H20.5419V22.385ZM10.3489 22.7572L7.56029 19.2681V18.8123L7.56317 18.8087L9.94061 16.0173L9.47837 15.8279V15.5227H11.2388V15.8992L10.9443 15.9943C10.7499 16.067 10.585 16.1707 10.454 16.3003L10.0306 16.7222L8.20109 18.8779L10.8046 22.1891L11.5649 22.3843V22.7608H10.3525L10.3489 22.7572ZM6.57029 22.2316V16.0418L5.98853 15.8589V15.5227H7.95197V15.8589L7.33997 16.0418V22.2316L8.02397 22.4145V22.7608H5.91725V22.4145L6.57029 22.2316ZM32.2109 25.774C32.2685 25.774 32.3189 25.7776 32.3636 25.7841C32.4075 25.7906 32.4557 25.8021 32.5069 25.8187C32.5292 25.8251 32.5378 25.8388 32.5335 25.8575L32.5162 25.9432C32.5119 25.9691 32.4989 25.9749 32.4788 25.9634C32.437 25.9439 32.3967 25.9317 32.3578 25.9252C32.3182 25.918 32.2693 25.9144 32.2088 25.9144C32.1598 25.9144 32.1137 25.9209 32.0698 25.9324C32.0266 25.9439 31.9892 25.9619 31.9575 25.9857C31.9258 26.0087 31.9006 26.0383 31.8812 26.0735C31.8617 26.1088 31.8531 26.1499 31.8531 26.1988C31.8531 26.2377 31.8653 26.273 31.8913 26.3068C31.9172 26.3407 31.9481 26.3716 31.9863 26.4011C32.0237 26.4307 32.0648 26.4573 32.108 26.4818C32.1519 26.5063 32.1908 26.5286 32.2261 26.5487C32.275 26.5768 32.3218 26.6049 32.3672 26.6344C32.4133 26.6639 32.4543 26.6971 32.4889 26.7338C32.5241 26.7705 32.5529 26.8108 32.576 26.8547C32.5976 26.8987 32.6084 26.9498 32.6084 27.0067C32.6084 27.0801 32.5933 27.1456 32.563 27.2025C32.5328 27.2594 32.4925 27.3083 32.4428 27.3487C32.3931 27.3875 32.3355 27.4178 32.2693 27.4387C32.2037 27.461 32.1353 27.4711 32.0648 27.4711C32 27.4711 31.9424 27.4675 31.8913 27.4581C31.8401 27.4495 31.7833 27.4351 31.7199 27.4142C31.6961 27.407 31.6868 27.3933 31.6911 27.3746L31.6997 27.2731C31.7033 27.2608 31.7077 27.2536 31.7141 27.2493C31.7206 27.2443 31.7285 27.2457 31.7379 27.2515C31.789 27.2795 31.8409 27.299 31.8934 27.3119C31.946 27.3242 32.0057 27.3307 32.0734 27.3307C32.1814 27.3307 32.2693 27.3011 32.3377 27.2421C32.4061 27.1838 32.4406 27.101 32.4406 26.9937C32.4406 26.9512 32.4241 26.908 32.3909 26.8663C32.3578 26.8231 32.3117 26.7827 32.2527 26.7453C32.2009 26.7129 32.1433 26.6791 32.0777 26.6438C32.0129 26.6085 31.951 26.5696 31.892 26.5279C31.8329 26.4861 31.784 26.4393 31.7437 26.3875C31.7048 26.3349 31.6839 26.2744 31.6839 26.206C31.6839 26.1347 31.699 26.0728 31.7285 26.0195C31.7581 25.9663 31.7977 25.9209 31.8473 25.8849C31.8963 25.8489 31.9525 25.8215 32.0158 25.8028C32.0792 25.7841 32.1447 25.774 32.2109 25.774ZM30.5636 27.2975H30.4282V25.9432H30.6673C30.8674 25.9432 31.0251 25.9929 31.1403 26.0908C31.2699 26.2024 31.3354 26.3752 31.3354 26.6085C31.3354 27.0679 31.0777 27.2975 30.5636 27.2975ZM30.6737 25.8071H30.3267C30.2957 25.8071 30.2777 25.81 30.272 25.8151C30.2677 25.8194 30.2648 25.8381 30.2648 25.8691V27.3746C30.2648 27.4055 30.2677 27.4235 30.272 27.4286C30.2777 27.4336 30.2957 27.4365 30.3267 27.4365H30.5542C30.6975 27.4365 30.8257 27.4199 30.9394 27.3875C31.0525 27.3551 31.1497 27.3091 31.2281 27.2493C31.3131 27.1787 31.3779 27.0895 31.4254 26.9829C31.4722 26.8749 31.4967 26.7532 31.4967 26.6171C31.4967 26.3673 31.4333 26.1736 31.3066 26.0332C31.1648 25.8827 30.9545 25.8071 30.6737 25.8071ZM29.6002 26.5775C29.5491 26.5927 29.4937 26.5991 29.4332 26.5991H29.2013V25.9432H29.4289C29.5088 25.9432 29.575 25.949 29.6283 25.9612C29.6809 25.9727 29.7241 25.9922 29.7572 26.0195C29.7903 26.0469 29.8141 26.0822 29.8277 26.1247C29.8421 26.1686 29.8486 26.2204 29.8486 26.2823C29.8486 26.3306 29.8385 26.3745 29.8177 26.4141C29.7975 26.4523 29.7687 26.4854 29.732 26.5135C29.6953 26.5415 29.6513 26.5631 29.6002 26.5775ZM29.7291 26.6769C29.7665 26.6589 29.8025 26.6366 29.8371 26.6092C29.8717 26.5826 29.9026 26.5516 29.9285 26.5178C29.9552 26.4839 29.9761 26.4479 29.9919 26.4083C30.007 26.368 30.0149 26.327 30.0149 26.2823C30.0149 26.2103 30.0049 26.1455 29.9854 26.0872C29.9653 26.0282 29.935 25.9778 29.8947 25.9375C29.8537 25.8957 29.8033 25.864 29.7421 25.841C29.6809 25.8187 29.6074 25.8071 29.5239 25.8071H29.1056C29.0897 25.8071 29.0775 25.8071 29.0681 25.8079C29.0595 25.8093 29.053 25.8115 29.0487 25.8158C29.0437 25.8201 29.0415 25.8266 29.0408 25.8359C29.0401 25.8446 29.0393 25.8568 29.0393 25.8734V27.4055C29.0393 27.4257 29.0501 27.4365 29.0703 27.4365H29.1704C29.1905 27.4365 29.2013 27.4257 29.2013 27.4055V26.7381H29.3871C29.431 26.7367 29.4677 26.7352 29.4965 26.7338C29.5246 26.7323 29.5563 26.728 29.5901 26.7201C29.6067 26.7525 29.6305 26.7993 29.6614 26.8598C29.6859 26.9109 29.7212 26.98 29.7651 27.0679C29.809 27.155 29.8645 27.2673 29.9314 27.4055C29.9408 27.4257 29.9573 27.4365 29.9797 27.4365H30.0941C30.1035 27.4365 30.1093 27.4329 30.1121 27.4264C30.1157 27.4199 30.1157 27.412 30.1121 27.4055L29.7291 26.6769ZM27.7858 26.8598C27.8477 26.7071 27.9082 26.5559 27.968 26.4069C28.0277 26.2579 28.0889 26.1074 28.1509 25.9547C28.2128 26.1074 28.2718 26.2579 28.3287 26.4069C28.3856 26.5559 28.4446 26.7071 28.5065 26.8598H27.7858ZM28.2653 25.8287C28.2581 25.8115 28.2452 25.8028 28.2265 25.8028H28.0911C28.0724 25.8028 28.0587 25.8115 28.0508 25.8287L27.4013 27.4055C27.3934 27.4257 27.4006 27.4365 27.4208 27.4365H27.5252C27.5338 27.4365 27.541 27.4351 27.5482 27.4322C27.5547 27.4286 27.5612 27.4199 27.5677 27.4055C27.5936 27.3364 27.6202 27.2687 27.6469 27.2025C27.6735 27.137 27.7001 27.0693 27.7282 27.0002H28.5598L28.7233 27.4055C28.7297 27.4199 28.7362 27.4286 28.742 27.4322C28.7485 27.4351 28.7571 27.4365 28.7657 27.4365H28.8716C28.8917 27.4365 28.8989 27.4257 28.891 27.4055L28.2653 25.8287ZM27.5957 25.8381L27.1357 27.4142C27.1313 27.4286 27.1213 27.4365 27.1069 27.4365H26.9593C26.9427 27.4365 26.9333 27.4286 26.9305 27.4142L26.5172 25.9828C26.4459 26.2226 26.3753 26.4602 26.3069 26.6971C26.2371 26.9347 26.1673 27.173 26.0967 27.4142C26.0924 27.4286 26.0823 27.4365 26.0679 27.4365H25.9153C25.8987 27.4365 25.8893 27.4286 25.8872 27.4142L25.4336 25.8381C25.4307 25.8302 25.4314 25.823 25.4357 25.8172C25.4393 25.8107 25.4465 25.8071 25.4552 25.8071H25.5589C25.5797 25.8071 25.5927 25.8179 25.5992 25.8381L25.9973 27.2687C26.0665 27.0283 26.1356 26.7914 26.2047 26.5588C26.2745 26.3263 26.3429 26.0894 26.4128 25.8489C26.4157 25.8345 26.4221 25.823 26.4322 25.8172C26.443 25.8107 26.4553 25.8071 26.4682 25.8071H26.5827C26.6079 25.8071 26.6245 25.8208 26.6317 25.8489L27.0363 27.2594C27.104 27.0167 27.1717 26.7791 27.2372 26.5487C27.3034 26.3183 27.3718 26.0815 27.4409 25.8381C27.4445 25.8287 27.4489 25.8215 27.4561 25.8158C27.464 25.81 27.4719 25.8071 27.4805 25.8071H27.5734C27.5828 25.8071 27.5893 25.8107 27.5936 25.8172C27.5979 25.823 27.5986 25.8302 27.5957 25.8381ZM24.4976 26.8598C24.5595 26.7071 24.6207 26.5559 24.6805 26.4069C24.7402 26.2579 24.8007 26.1074 24.8626 25.9547C24.9245 26.1074 24.9843 26.2579 25.0412 26.4069C25.0973 26.5559 25.1571 26.7071 25.219 26.8598H24.4976ZM24.9778 25.8287C24.9699 25.8115 24.9569 25.8028 24.9375 25.8028H24.8029C24.7834 25.8028 24.7705 25.8115 24.7633 25.8287L24.1131 27.4055C24.1059 27.4257 24.1124 27.4365 24.1333 27.4365H24.2369C24.2456 27.4365 24.2535 27.4351 24.26 27.4322C24.2672 27.4286 24.2729 27.4199 24.2787 27.4055C24.3053 27.3364 24.332 27.2687 24.3579 27.2025C24.3853 27.137 24.4126 27.0693 24.4407 27.0002H25.2716L25.4357 27.4055C25.4408 27.4199 25.4473 27.4286 25.4545 27.4322C25.4609 27.4351 25.4681 27.4365 25.4775 27.4365H25.5841C25.6042 27.4365 25.6107 27.4257 25.6035 27.4055L24.9778 25.8287ZM23.4557 26.5631C23.4601 26.5689 23.4629 26.5862 23.4629 26.6171V27.3155C23.4629 27.3314 23.4579 27.3451 23.4485 27.3566C23.4392 27.3688 23.4277 27.3775 23.4169 27.3832C23.3456 27.4091 23.2721 27.43 23.1944 27.4437C23.1166 27.4581 23.0367 27.4646 22.9517 27.4646C22.8293 27.4646 22.7163 27.4459 22.6126 27.4091C22.5089 27.3717 22.4189 27.317 22.3441 27.2457C22.2685 27.1744 22.2101 27.0866 22.1677 26.9815C22.1266 26.8763 22.1057 26.7568 22.1057 26.6215C22.1057 26.4983 22.1245 26.3853 22.1641 26.2823C22.2022 26.1794 22.2584 26.0908 22.3318 26.0159C22.4053 25.9411 22.4938 25.8827 22.5982 25.841C22.7033 25.7992 22.8214 25.7783 22.9517 25.7783C23.0345 25.7783 23.1065 25.7827 23.1677 25.7891C23.2289 25.7963 23.2945 25.8115 23.3636 25.8331C23.3859 25.8395 23.3945 25.8539 23.3902 25.8777L23.3787 25.9591C23.3772 25.9778 23.3665 25.9843 23.3456 25.9785C23.2793 25.954 23.216 25.9375 23.1555 25.9295C23.095 25.9209 23.0273 25.9166 22.9517 25.9166C22.8473 25.9166 22.753 25.9346 22.6681 25.9691C22.5831 26.003 22.5111 26.0512 22.4513 26.1131C22.3916 26.1751 22.3462 26.2485 22.3145 26.3349C22.2829 26.422 22.2663 26.5171 22.2663 26.6215C22.2663 26.7345 22.2836 26.8353 22.3174 26.9231C22.3513 27.0117 22.3988 27.0844 22.46 27.1442C22.5212 27.2039 22.5932 27.2493 22.6774 27.2803C22.7602 27.3112 22.8517 27.3256 22.9517 27.3256C23.1159 27.3256 23.2325 27.3062 23.3017 27.2666V26.6942H22.8574C22.8365 26.6942 22.8265 26.6841 22.8265 26.6632V26.5862C22.8265 26.566 22.8365 26.5559 22.8574 26.5559H23.401C23.432 26.5559 23.45 26.5581 23.4557 26.5631ZM21.8753 25.8331V27.3746C21.8753 27.4055 21.8725 27.4235 21.8674 27.4286C21.8624 27.4336 21.8444 27.4365 21.8134 27.4365H21.6788C21.6665 27.4365 21.6579 27.4351 21.6536 27.4322C21.6478 27.4286 21.6413 27.4214 21.6341 27.4091L20.8198 26.0095V27.4055C20.8198 27.4257 20.8105 27.4365 20.7889 27.4365H20.6902C20.6693 27.4365 20.6593 27.4257 20.6593 27.4055V25.864C20.6593 25.8331 20.6621 25.8158 20.6672 25.8107C20.6715 25.805 20.6902 25.8028 20.7212 25.8028H20.8227C20.8421 25.8028 20.8544 25.8043 20.8616 25.8079C20.8681 25.8122 20.8753 25.8201 20.8825 25.8331L21.7162 27.2579V25.8331C21.7162 25.8129 21.7263 25.8028 21.7472 25.8028H21.8444C21.8653 25.8028 21.8753 25.8129 21.8753 25.8331ZM20.4253 25.8381V27.4055C20.4253 27.4257 20.4145 27.4365 20.3943 27.4365H20.2877C20.2669 27.4365 20.2568 27.4257 20.2568 27.4055V25.8381C20.2568 25.8179 20.2669 25.8071 20.2877 25.8071H20.3943C20.4145 25.8071 20.4253 25.8179 20.4253 25.8381ZM20.1682 25.8381V25.9123C20.1682 25.9331 20.1574 25.9432 20.1372 25.9432H19.6772V27.4055C19.6772 27.4257 19.6671 27.4365 19.6469 27.4365H19.5447C19.5245 27.4365 19.5137 27.4257 19.5137 27.4055V25.9432H19.058C19.0371 25.9432 19.027 25.9331 19.027 25.9123V25.8381C19.027 25.8179 19.0371 25.8071 19.058 25.8071H20.1372C20.1574 25.8071 20.1682 25.8179 20.1682 25.8381ZM18.9169 27.4387H18.127C18.0961 27.4387 18.0781 27.4358 18.073 27.4307C18.068 27.4257 18.0651 27.4077 18.0651 27.3767V25.8597C18.0651 25.8323 18.068 25.8158 18.073 25.8107C18.0781 25.805 18.0946 25.8028 18.1227 25.8028H18.8902C18.9111 25.8028 18.9212 25.8129 18.9212 25.8331V25.9101C18.9212 25.931 18.9111 25.9411 18.8902 25.9411H18.2264V26.5228H18.8571C18.878 26.5228 18.8881 26.5329 18.8881 26.5531V26.6323C18.8881 26.6531 18.878 26.6632 18.8571 26.6632H18.2264V27.2975H18.9169C18.937 27.2975 18.9478 27.3076 18.9478 27.3278V27.4077C18.9478 27.4286 18.937 27.4387 18.9169 27.4387ZM17.906 27.4055C17.9197 27.4257 17.9168 27.4365 17.8973 27.4365H17.7778C17.7634 27.4365 17.7497 27.4343 17.7382 27.4293C17.7267 27.425 17.7166 27.4171 17.7094 27.4055L17.1788 26.6265L16.9621 26.8792V27.4055C16.9621 27.4257 16.9513 27.4365 16.9311 27.4365H16.8339C16.813 27.4365 16.8029 27.4257 16.8029 27.4055V25.8381C16.8029 25.8179 16.813 25.8071 16.8339 25.8071H16.9311C16.9513 25.8071 16.9621 25.8179 16.9621 25.8381V26.6769L17.6453 25.8381C17.6662 25.8179 17.6907 25.8071 17.7202 25.8071H17.8441C17.8527 25.8071 17.8585 25.8107 17.8606 25.8172C17.8628 25.823 17.8606 25.8302 17.8527 25.8381L17.2825 26.5048L17.906 27.4055ZM16.1031 26.5775C16.052 26.5927 15.9965 26.5991 15.9361 26.5991H15.7035V25.9432H15.931C16.0109 25.9432 16.0772 25.949 16.1305 25.9612C16.183 25.9727 16.2269 25.9922 16.2601 26.0195C16.2932 26.0469 16.3169 26.0822 16.3306 26.1247C16.3443 26.1686 16.3515 26.2204 16.3515 26.2823C16.3515 26.3306 16.3414 26.3745 16.3205 26.4141C16.3004 26.4523 16.2716 26.4854 16.2341 26.5135C16.1974 26.5415 16.1535 26.5631 16.1031 26.5775ZM16.232 26.6769C16.2694 26.6589 16.3047 26.6366 16.3393 26.6092C16.3738 26.5826 16.4048 26.5516 16.4314 26.5178C16.4581 26.4839 16.4789 26.4479 16.4941 26.4083C16.5099 26.368 16.5171 26.327 16.5171 26.2823C16.5171 26.2103 16.5077 26.1455 16.4876 26.0872C16.4674 26.0282 16.4379 25.9778 16.3969 25.9375C16.3565 25.8957 16.3054 25.864 16.2442 25.841C16.183 25.8187 16.1103 25.8071 16.0268 25.8071H15.6085C15.5926 25.8071 15.5797 25.8071 15.571 25.8079C15.5624 25.8093 15.5552 25.8115 15.5516 25.8158C15.5465 25.8201 15.5444 25.8266 15.5437 25.8359C15.5422 25.8446 15.5422 25.8568 15.5422 25.8734V27.4055C15.5422 27.4257 15.5523 27.4365 15.5732 27.4365H15.6725C15.6934 27.4365 15.7035 27.4257 15.7035 27.4055V26.7381H15.8893C15.9339 26.7367 15.9706 26.7352 15.9987 26.7338C16.0275 26.7323 16.0592 26.728 16.093 26.7201C16.1089 26.7525 16.1326 26.7993 16.1636 26.8598C16.1888 26.9109 16.2233 26.98 16.268 27.0679C16.3119 27.155 16.3673 27.2673 16.4336 27.4055C16.4437 27.4257 16.4602 27.4365 16.4818 27.4365H16.597C16.6057 27.4365 16.6114 27.4329 16.615 27.4264C16.6179 27.4199 16.6179 27.412 16.615 27.4055L16.232 26.6769ZM14.2887 26.8598C14.3506 26.7071 14.4111 26.5559 14.4709 26.4069C14.5306 26.2579 14.5918 26.1074 14.653 25.9547C14.7149 26.1074 14.7747 26.2579 14.8316 26.4069C14.8885 26.5559 14.9475 26.7071 15.0094 26.8598H14.2887ZM14.7682 25.8287C14.761 25.8115 14.7473 25.8028 14.7286 25.8028H14.5933C14.5745 25.8028 14.5616 25.8115 14.5537 25.8287L13.9035 27.4055C13.8963 27.4257 13.9028 27.4365 13.9237 27.4365H14.0273C14.0367 27.4365 14.0439 27.4351 14.0511 27.4322C14.0576 27.4286 14.0641 27.4199 14.0691 27.4055C14.0965 27.3364 14.1224 27.2687 14.149 27.2025C14.1757 27.137 14.203 27.0693 14.2311 27.0002H15.0627L15.2261 27.4055C15.2319 27.4199 15.2384 27.4286 15.2449 27.4322C15.2513 27.4351 15.2593 27.4365 15.2679 27.4365H15.3737C15.3946 27.4365 15.4018 27.4257 15.3939 27.4055L14.7682 25.8287ZM13.73 25.8107C13.7357 25.8158 13.7379 25.8331 13.7379 25.864V27.4055C13.7379 27.4257 13.7278 27.4365 13.7069 27.4365H13.6076C13.5867 27.4365 13.5766 27.4257 13.5766 27.4055V25.9454C13.4672 26.2154 13.3693 26.4573 13.2821 26.6697C13.2454 26.7611 13.2094 26.8497 13.1741 26.9375C13.1381 27.0247 13.1072 27.1031 13.0791 27.1708C13.051 27.2392 13.028 27.2939 13.0107 27.3371C12.9927 27.3796 12.9841 27.4019 12.9841 27.4034C12.9761 27.4178 12.9653 27.425 12.9509 27.425H12.8516C12.8408 27.425 12.8336 27.4235 12.8293 27.4199C12.8242 27.4156 12.8213 27.4099 12.8177 27.4034L12.2079 25.9454V27.4055C12.2079 27.4257 12.1971 27.4365 12.1769 27.4365H12.0769C12.0567 27.4365 12.0459 27.4257 12.0459 27.4055V25.864C12.0459 25.8331 12.0488 25.8158 12.0538 25.8107C12.0589 25.805 12.0769 25.8028 12.1085 25.8028H12.2741C12.2857 25.8028 12.2943 25.8043 12.2993 25.8071C12.3044 25.81 12.3094 25.8179 12.3137 25.8287L12.902 27.2536L13.4722 25.8266C13.4787 25.8107 13.4902 25.8028 13.5082 25.8028H13.676C13.7069 25.8028 13.7249 25.805 13.73 25.8107ZM10.3172 26.8598C10.3791 26.7071 10.4396 26.5559 10.4993 26.4069C10.5591 26.2579 10.6196 26.1074 10.6822 25.9547C10.7441 26.1074 10.8032 26.2579 10.8601 26.4069C10.9169 26.5559 10.976 26.7071 11.0379 26.8598H10.3172ZM10.7974 25.8287C10.7895 25.8115 10.7765 25.8028 10.7571 25.8028H10.6225C10.603 25.8028 10.5893 25.8115 10.5829 25.8287L9.93197 27.4055C9.92477 27.4257 9.93125 27.4365 9.95213 27.4365H10.0558C10.0652 27.4365 10.0731 27.4351 10.0796 27.4322C10.0861 27.4286 10.0925 27.4199 10.0983 27.4055C10.1242 27.3364 10.1516 27.2687 10.1775 27.2025C10.2041 27.137 10.2315 27.0693 10.2596 27.0002H11.0912L11.2546 27.4055C11.2604 27.4199 11.2669 27.4286 11.2733 27.4322C11.2798 27.4351 11.2877 27.4365 11.2964 27.4365H11.4029C11.4238 27.4365 11.4303 27.4257 11.4231 27.4055L10.7974 25.8287ZM9.83261 27.3278V27.4077C9.83261 27.4286 9.82253 27.4387 9.80165 27.4387H9.01253C8.98157 27.4387 8.96357 27.4358 8.95853 27.4307C8.95277 27.4257 8.95061 27.4077 8.95061 27.3767V25.8597C8.95061 25.8323 8.95277 25.8158 8.95853 25.8107C8.96357 25.805 8.98013 25.8028 9.00821 25.8028H9.77573C9.79589 25.8028 9.80669 25.8129 9.80669 25.8331V25.9101C9.80669 25.931 9.79589 25.9411 9.77573 25.9411H9.11189V26.5228H9.74189C9.76277 26.5228 9.77285 26.5329 9.77285 26.5531V26.6323C9.77285 26.6531 9.76277 26.6632 9.74189 26.6632H9.11189V27.2975H9.80165C9.82253 27.2975 9.83261 27.3076 9.83261 27.3278ZM8.27309 26.5775C8.22197 26.5927 8.16653 26.5991 8.10605 26.5991H7.87349V25.9432H8.10101C8.18093 25.9432 8.24789 25.949 8.30045 25.9612C8.35301 25.9727 8.39693 25.9922 8.43005 26.0195C8.46317 26.0469 8.48693 26.0822 8.50061 26.1247C8.51429 26.1686 8.52149 26.2204 8.52149 26.2823C8.52149 26.3306 8.51141 26.3745 8.49053 26.4141C8.47037 26.4523 8.44157 26.4854 8.40413 26.5135C8.36741 26.5415 8.32349 26.5631 8.27309 26.5775ZM8.40197 26.6769C8.43941 26.6589 8.47469 26.6366 8.50925 26.6092C8.54381 26.5826 8.57477 26.5516 8.60141 26.5178C8.62805 26.4839 8.64893 26.4479 8.66405 26.4083C8.67989 26.368 8.68709 26.327 8.68709 26.2823C8.68709 26.2103 8.67773 26.1455 8.65757 26.0872C8.63741 26.0282 8.60789 25.9778 8.56685 25.9375C8.52653 25.8957 8.47541 25.864 8.41421 25.841C8.35301 25.8187 8.28029 25.8071 8.19677 25.8071H7.77845C7.76261 25.8071 7.74965 25.8071 7.74101 25.8079C7.73237 25.8093 7.72517 25.8115 7.72157 25.8158C7.71653 25.8201 7.71437 25.8266 7.71365 25.8359C7.71221 25.8446 7.71221 25.8568 7.71221 25.8734V27.4055C7.71221 27.4257 7.72229 27.4365 7.74317 27.4365H7.84253C7.86341 27.4365 7.87349 27.4257 7.87349 27.4055V26.7381H8.05925C8.10389 26.7367 8.14061 26.7352 8.16869 26.7338C8.19749 26.7323 8.22917 26.728 8.26301 26.7201C8.27885 26.7525 8.30261 26.7993 8.33357 26.8598C8.35877 26.9109 8.39333 26.98 8.43797 27.0679C8.48189 27.155 8.53733 27.2673 8.60357 27.4055C8.61365 27.4257 8.63021 27.4365 8.65181 27.4365H8.76701C8.77565 27.4365 8.78213 27.4329 8.78501 27.4264C8.78789 27.4199 8.78789 27.412 8.78501 27.4055L8.40197 26.6769ZM7.27877 26.885C7.25501 26.9671 7.22189 27.0427 7.17941 27.1082C7.12757 27.1802 7.06637 27.2349 6.99437 27.2745C6.92309 27.3134 6.84245 27.3328 6.75245 27.3328C6.66389 27.3328 6.58325 27.3134 6.51125 27.2731C6.43925 27.2335 6.37661 27.1787 6.32333 27.1082C6.28085 27.0427 6.24773 26.9671 6.22397 26.885C6.20021 26.8022 6.18869 26.7143 6.18869 26.6215C6.18869 26.5293 6.20021 26.4422 6.22397 26.3594C6.24773 26.2773 6.28085 26.2039 6.32333 26.1369C6.37517 26.0649 6.43637 26.0102 6.50837 25.9706C6.57965 25.9324 6.66101 25.9123 6.75245 25.9123C6.84245 25.9123 6.92309 25.9324 6.99437 25.9706C7.06637 26.0102 7.12757 26.0649 7.17941 26.1369C7.22189 26.2039 7.25501 26.2773 7.27877 26.3594C7.30253 26.4422 7.31405 26.5293 7.31405 26.6215C7.31405 26.7143 7.30253 26.8022 7.27877 26.885ZM7.30325 26.0311C7.23701 25.9475 7.15709 25.8835 7.06493 25.8403C6.97349 25.7956 6.86909 25.774 6.75245 25.774C6.63797 25.774 6.53357 25.7963 6.43997 25.841C6.34565 25.8856 6.26645 25.9483 6.19949 26.0289C6.14405 26.1059 6.10085 26.1931 6.07133 26.2917C6.04181 26.3896 6.02741 26.4998 6.02741 26.6215C6.02741 26.8785 6.08717 27.0823 6.20813 27.2335C6.33845 27.3919 6.51989 27.4711 6.75245 27.4711C6.98573 27.4711 7.16645 27.3919 7.29461 27.2335C7.41197 27.0866 7.47245 26.8828 7.47533 26.6215C7.47749 26.5027 7.46309 26.3939 7.43357 26.2967C7.40405 26.1995 7.36085 26.111 7.30325 26.0311ZM5.94101 27.4055C5.95397 27.4257 5.95181 27.4365 5.93237 27.4365H5.81285C5.79845 27.4365 5.78477 27.4343 5.77253 27.4293C5.76101 27.425 5.75165 27.4171 5.74445 27.4055L5.21381 26.6265L4.99709 26.8792V27.4055C4.99709 27.4257 4.98629 27.4365 4.96541 27.4365H4.86893C4.84805 27.4365 4.83797 27.4257 4.83797 27.4055V25.8381C4.83797 25.8179 4.84805 25.8071 4.86893 25.8071H4.96541C4.98629 25.8071 4.99709 25.8179 4.99709 25.8381V26.6769L5.68037 25.8381C5.70053 25.8179 5.72573 25.8071 5.75525 25.8071H5.87909C5.88773 25.8071 5.89349 25.8107 5.89565 25.8172C5.89781 25.823 5.89493 25.8302 5.88773 25.8381L5.31749 26.5048L5.94101 27.4055ZM30.3137 9.71874C30.3735 9.5697 30.434 9.4185 30.4959 9.26586C30.5578 9.4185 30.6176 9.5697 30.6737 9.71874C30.7306 9.86778 30.7896 10.0183 30.8523 10.1709H30.1308C30.1928 10.0183 30.254 9.86778 30.3137 9.71874ZM29.7658 10.7476H29.8702C29.8789 10.7476 29.8868 10.7462 29.8933 10.7433C29.9005 10.7404 29.9069 10.7318 29.912 10.7167C29.9386 10.6483 29.9653 10.5806 29.9919 10.5143C30.0185 10.4481 30.0459 10.3811 30.0733 10.312H30.9049L31.069 10.7167C31.0748 10.7318 31.0805 10.7404 31.0877 10.7433C31.0942 10.7462 31.1021 10.7476 31.1108 10.7476H31.2173C31.2375 10.7476 31.244 10.7375 31.2368 10.7167L30.6111 9.14058C30.6032 9.1233 30.5902 9.11394 30.5708 9.11394H30.4361C30.4174 9.11394 30.4037 9.1233 30.3965 9.14058L29.7464 10.7167C29.7392 10.7375 29.7457 10.7476 29.7658 10.7476ZM28.4187 10.7426C28.4129 10.7368 28.4108 10.7188 28.4108 10.6879V9.17154C28.4108 9.14346 28.4129 9.1269 28.4187 9.12186C28.4237 9.11682 28.4403 9.11394 28.4677 9.11394H29.2359C29.2561 9.11394 29.2669 9.12402 29.2669 9.1449V9.22194C29.2669 9.24282 29.2561 9.2529 29.2359 9.2529H28.5721V9.83394H29.2021C29.2229 9.83394 29.2337 9.84402 29.2337 9.8649V9.9441C29.2337 9.96426 29.2229 9.97506 29.2021 9.97506H28.5721V10.6094H29.2618C29.2827 10.6094 29.2928 10.6195 29.2928 10.6396V10.7188C29.2928 10.7397 29.2827 10.7498 29.2618 10.7498H28.4727C28.4417 10.7498 28.4237 10.7469 28.4187 10.7426ZM26.9801 9.25506H27.2077C27.2876 9.25506 27.3538 9.26082 27.4071 9.27306C27.4597 9.28458 27.5036 9.30402 27.5367 9.33138C27.5691 9.35802 27.5936 9.3933 27.6073 9.4365C27.6209 9.48042 27.6274 9.53226 27.6274 9.59418C27.6274 9.64242 27.6181 9.68634 27.5972 9.72522C27.5763 9.7641 27.5475 9.79722 27.5108 9.8253C27.4741 9.85338 27.4301 9.87426 27.3797 9.88938C27.3279 9.90378 27.2725 9.91098 27.212 9.91098H26.9801V9.25506ZM26.8491 10.7476H26.9492C26.9693 10.7476 26.9801 10.7375 26.9801 10.7167V10.0499H27.1659C27.2098 10.0485 27.2465 10.0471 27.2753 10.0456C27.3041 10.0442 27.3351 10.0391 27.3689 10.0319C27.3862 10.0643 27.4093 10.1111 27.4402 10.1709C27.4654 10.222 27.5 10.2919 27.5439 10.379C27.5885 10.4661 27.6433 10.5791 27.7102 10.7167C27.7196 10.7375 27.7361 10.7476 27.7585 10.7476H27.8729C27.8823 10.7476 27.8881 10.744 27.8917 10.7375C27.8945 10.7311 27.8945 10.7239 27.8917 10.7167L27.5086 9.98802C27.5453 9.97074 27.5813 9.94842 27.6159 9.92106C27.6505 9.8937 27.6814 9.86346 27.7081 9.82962C27.734 9.79578 27.7549 9.75906 27.7707 9.71946C27.7858 9.67986 27.7937 9.6381 27.7937 9.59418C27.7937 9.52218 27.7837 9.45666 27.7642 9.39834C27.7441 9.3393 27.7138 9.28962 27.6735 9.24858C27.6325 9.20754 27.5821 9.17514 27.5209 9.15282C27.4597 9.12978 27.3877 9.11898 27.3027 9.11898H26.8851C26.8693 9.11898 26.8563 9.11898 26.8477 9.1197C26.839 9.12042 26.8318 9.1233 26.8275 9.12762C26.8232 9.13194 26.8203 9.13842 26.8196 9.14706C26.8189 9.1557 26.8181 9.16866 26.8181 9.1845V10.7167C26.8181 10.7375 26.8289 10.7476 26.8491 10.7476ZM24.9771 9.67122C25.0001 9.58914 25.0333 9.51498 25.0765 9.44874C25.1276 9.37674 25.1895 9.3213 25.2608 9.28242C25.3321 9.24354 25.4134 9.2241 25.5049 9.2241C25.5949 9.2241 25.6762 9.24354 25.7475 9.28242C25.8188 9.3213 25.8807 9.37674 25.9318 9.44874C25.975 9.51498 26.0074 9.58914 26.0319 9.67122C26.0549 9.7533 26.0672 9.84042 26.0672 9.9333C26.0672 10.0255 26.0549 10.1133 26.0319 10.1961C26.0074 10.2789 25.975 10.3538 25.9318 10.4193C25.8807 10.4913 25.8188 10.5475 25.7475 10.5856C25.6762 10.6245 25.5949 10.6439 25.5049 10.6439C25.4163 10.6439 25.3364 10.6245 25.2637 10.5849C25.1924 10.5453 25.1297 10.4899 25.0765 10.4193C25.0333 10.3538 25.0001 10.2789 24.9771 10.1961C24.9533 10.1133 24.9411 10.0255 24.9411 9.9333C24.9411 9.84042 24.9533 9.7533 24.9771 9.67122ZM25.5048 10.7829C25.7374 10.7829 25.9181 10.7037 26.047 10.5453C26.1644 10.3984 26.2248 10.1947 26.2284 9.9333C26.2299 9.81378 26.2162 9.7065 26.1867 9.60858C26.1572 9.51066 26.1133 9.42282 26.0556 9.3429C25.9894 9.25938 25.9102 9.1953 25.818 9.15138C25.7259 9.10746 25.6215 9.08586 25.5048 9.08586C25.3904 9.08586 25.286 9.10818 25.1924 9.15282C25.0988 9.19746 25.0181 9.2601 24.9526 9.34074C24.8964 9.41706 24.854 9.5049 24.8244 9.60282C24.7949 9.70146 24.7798 9.81162 24.7798 9.9333C24.7798 10.1896 24.8403 10.3941 24.9612 10.5453C25.0908 10.7037 25.2723 10.7829 25.5048 10.7829ZM23.2369 10.7167V9.14922C23.2369 9.12906 23.2469 9.11898 23.2678 9.11898H23.365C23.3852 9.11898 23.396 9.12906 23.396 9.14922V9.98802L24.0793 9.14922C24.0994 9.12906 24.1246 9.11898 24.1541 9.11898H24.278C24.2866 9.11898 24.2924 9.12186 24.2945 9.12834C24.2967 9.13482 24.2945 9.14202 24.2866 9.14922L23.7164 9.81594L24.3399 10.7167C24.3536 10.7375 24.3507 10.7476 24.3305 10.7476H24.211C24.1973 10.7476 24.1837 10.7455 24.1721 10.7411C24.1599 10.7368 24.1498 10.7289 24.1433 10.7167L23.612 9.93762L23.396 10.1903V10.7167C23.396 10.7375 23.3852 10.7476 23.365 10.7476H23.2678C23.2469 10.7476 23.2369 10.7375 23.2369 10.7167ZM21.0185 10.7167V9.18234C21.0185 9.14994 21.0214 9.13122 21.0264 9.12618C21.0315 9.12114 21.0502 9.11898 21.0826 9.11898H21.8213C21.8415 9.11898 21.8523 9.12906 21.8523 9.14922V9.2241C21.8523 9.24498 21.8415 9.25506 21.8213 9.25506H21.182V9.83826H21.7904C21.8105 9.83826 21.8213 9.84906 21.8213 9.86922V9.94842C21.8213 9.9693 21.8105 9.97938 21.7904 9.97938H21.182V10.7167C21.182 10.7375 21.1719 10.7476 21.151 10.7476H21.0495C21.0286 10.7476 21.0185 10.7375 21.0185 10.7167ZM19.2034 9.67122C19.2272 9.58914 19.2596 9.51498 19.3028 9.44874C19.3539 9.37674 19.4158 9.3213 19.4871 9.28242C19.5584 9.24354 19.6404 9.2241 19.7319 9.2241C19.8219 9.2241 19.9025 9.24354 19.9738 9.28242C20.0451 9.3213 20.107 9.37674 20.1581 9.44874C20.2013 9.51498 20.2344 9.58914 20.2582 9.67122C20.2812 9.7533 20.2935 9.84042 20.2935 9.9333C20.2935 10.0255 20.2812 10.1133 20.2582 10.1961C20.2344 10.2789 20.2013 10.3538 20.1581 10.4193C20.107 10.4913 20.0451 10.5475 19.9738 10.5856C19.9025 10.6245 19.8219 10.6439 19.7319 10.6439C19.6433 10.6439 19.5627 10.6245 19.4907 10.5849C19.418 10.5453 19.3553 10.4899 19.3028 10.4193C19.2596 10.3538 19.2272 10.2789 19.2034 10.1961C19.1796 10.1133 19.1674 10.0255 19.1674 9.9333C19.1674 9.84042 19.1796 9.7533 19.2034 9.67122ZM19.7319 10.7829C19.9645 10.7829 20.1452 10.7037 20.2733 10.5453C20.3914 10.3984 20.4519 10.1947 20.4548 9.9333C20.4562 9.81378 20.4418 9.7065 20.413 9.60858C20.3835 9.51066 20.3396 9.42282 20.282 9.3429C20.2165 9.25938 20.1365 9.1953 20.0444 9.15138C19.9522 9.10746 19.8485 9.08586 19.7319 9.08586C19.6167 9.08586 19.5123 9.10818 19.4187 9.15282C19.3251 9.19746 19.2452 9.2601 19.1789 9.34074C19.1228 9.41706 19.0803 9.5049 19.0508 9.60282C19.0213 9.70146 19.0061 9.81162 19.0061 9.9333C19.0061 10.1896 19.0666 10.3941 19.1876 10.5453C19.3172 10.7037 19.4986 10.7829 19.7319 10.7829ZM16.7518 10.7426C16.7468 10.7368 16.7439 10.7188 16.7439 10.6879V9.17154C16.7439 9.14346 16.7468 9.1269 16.7518 9.12186C16.7569 9.11682 16.7734 9.11394 16.8015 9.11394H17.569C17.5899 9.11394 17.6 9.12402 17.6 9.1449V9.22194C17.6 9.24282 17.5899 9.2529 17.569 9.2529H16.9059V9.83394H17.5359C17.5568 9.83394 17.5669 9.84402 17.5669 9.8649V9.9441C17.5669 9.96426 17.5568 9.97506 17.5359 9.97506H16.9059V10.6094H17.5957C17.6165 10.6094 17.6266 10.6195 17.6266 10.6396V10.7188C17.6266 10.7397 17.6165 10.7498 17.5957 10.7498H16.8058C16.7749 10.7498 16.7569 10.7469 16.7518 10.7426ZM15.0656 9.25506H15.3046C15.5055 9.25506 15.6632 9.30402 15.7777 9.40266C15.908 9.51426 15.9728 9.68634 15.9728 9.91962C15.9728 10.3797 15.7157 10.6094 15.2009 10.6094H15.0656V9.25506ZM14.9641 10.7476H15.1923C15.3349 10.7476 15.463 10.7318 15.5768 10.6994C15.6898 10.667 15.787 10.6209 15.8662 10.5604C15.9505 10.4899 16.016 10.4013 16.0628 10.294C16.1103 10.1875 16.1341 10.0651 16.1341 9.92898C16.1341 9.67914 16.0707 9.48474 15.944 9.34578C15.8021 9.19458 15.5912 9.11898 15.3118 9.11898H14.9641C14.9331 9.11898 14.9151 9.12114 14.9101 9.12618C14.905 9.13122 14.9021 9.14922 14.9021 9.18018V10.6857C14.9021 10.7167 14.905 10.7347 14.9101 10.7404C14.9151 10.7447 14.9331 10.7476 14.9641 10.7476ZM14.1375 10.7167V9.14922C14.1375 9.12906 14.1476 9.11898 14.1685 9.11898H14.2743C14.2952 9.11898 14.3053 9.12906 14.3053 9.14922V10.7167C14.3053 10.7375 14.2952 10.7476 14.2743 10.7476H14.1685C14.1476 10.7476 14.1375 10.7375 14.1375 10.7167ZM12.7285 9.25506H12.9567C13.0359 9.25506 13.1021 9.26082 13.1554 9.27306C13.2087 9.28458 13.2519 9.30402 13.285 9.33138C13.3174 9.35802 13.3419 9.3933 13.3556 9.4365C13.3693 9.48042 13.3765 9.53226 13.3765 9.59418C13.3765 9.64242 13.3664 9.68634 13.3455 9.72522C13.3246 9.7641 13.2965 9.79722 13.2591 9.8253C13.2224 9.85338 13.1785 9.87426 13.1273 9.88938C13.0769 9.90378 13.0215 9.91098 12.961 9.91098H12.7285V9.25506ZM12.5981 10.7476H12.6975C12.7184 10.7476 12.7285 10.7375 12.7285 10.7167V10.0499H12.9142C12.9581 10.0485 12.9949 10.0471 13.0237 10.0456C13.0525 10.0442 13.0841 10.0391 13.118 10.0319C13.1338 10.0643 13.1576 10.1111 13.1885 10.1709C13.2137 10.222 13.2483 10.2919 13.2922 10.379C13.3369 10.4661 13.3923 10.5791 13.4585 10.7167C13.4686 10.7375 13.4845 10.7476 13.5068 10.7476H13.622C13.6306 10.7476 13.6364 10.744 13.64 10.7375C13.6429 10.7311 13.6429 10.7239 13.64 10.7167L13.2577 9.98802C13.2937 9.97074 13.3297 9.94842 13.3642 9.92106C13.3988 9.8937 13.4297 9.86346 13.4564 9.82962C13.4823 9.79578 13.5039 9.75906 13.519 9.71946C13.5349 9.67986 13.5428 9.6381 13.5428 9.59418C13.5428 9.52218 13.5327 9.45666 13.5125 9.39834C13.4924 9.3393 13.4621 9.28962 13.4218 9.24858C13.3815 9.20754 13.3304 9.17514 13.2692 9.15282C13.208 9.12978 13.136 9.11898 13.0517 9.11898H12.6334C12.6169 9.11898 12.6046 9.11898 12.596 9.1197C12.5873 9.12042 12.5809 9.1233 12.5758 9.12762C12.5715 9.13194 12.5686 9.13842 12.5679 9.14706C12.5679 9.1557 12.5672 9.16866 12.5672 9.1845V10.7167C12.5672 10.7375 12.5773 10.7476 12.5981 10.7476ZM11.2273 9.2529H11.5592C11.665 9.2529 11.7449 9.28098 11.8004 9.33714C11.8544 9.39402 11.8817 9.47466 11.8817 9.57834C11.8774 9.65178 11.863 9.7101 11.84 9.75402C11.8162 9.79722 11.7838 9.83034 11.7435 9.8541C11.7032 9.87714 11.6542 9.89298 11.5973 9.90018C11.5412 9.90738 11.4771 9.91098 11.4065 9.91098H11.2273V9.2529ZM11.0969 10.7476H11.1963C11.2172 10.7476 11.2273 10.7375 11.2273 10.7167V10.0499H11.5081C11.5829 10.0528 11.6535 10.0442 11.7205 10.0233C11.7867 10.0031 11.8443 9.97218 11.8925 9.93186C11.9415 9.89154 11.9797 9.84186 12.007 9.7821C12.0337 9.72306 12.0473 9.65466 12.0473 9.57834C12.0473 9.42714 12.0005 9.31194 11.9062 9.23058C11.8148 9.15354 11.6881 9.11394 11.5261 9.11394H11.1322C11.1013 9.11394 11.0825 9.11682 11.0761 9.1233C11.0689 9.12906 11.066 9.14778 11.066 9.18018V10.7167C11.066 10.7375 11.0761 10.7476 11.0969 10.7476ZM8.73821 10.7426C8.73317 10.7368 8.73029 10.7188 8.73029 10.6879V9.17154C8.73029 9.14346 8.73317 9.1269 8.73821 9.12186C8.74325 9.11682 8.75981 9.11394 8.78789 9.11394H9.55541C9.57629 9.11394 9.58637 9.12402 9.58637 9.1449V9.22194C9.58637 9.24282 9.57629 9.2529 9.55541 9.2529H8.89229V9.83394H9.52229C9.54317 9.83394 9.55325 9.84402 9.55325 9.8649V9.9441C9.55325 9.96426 9.54317 9.97506 9.52229 9.97506H8.89229V10.6094H9.58205C9.60293 10.6094 9.61301 10.6195 9.61301 10.6396V10.7188C9.61301 10.7397 9.60293 10.7498 9.58205 10.7498H8.79221C8.76125 10.7498 8.74325 10.7469 8.73821 10.7426ZM6.90653 10.7167V9.1449C6.90653 9.12402 6.91661 9.11394 6.93749 9.11394H7.03685C7.05773 9.11394 7.06781 9.12402 7.06781 9.1449V9.8361H7.90589V9.1449C7.90589 9.12402 7.91597 9.11394 7.93685 9.11394H8.03621C8.05709 9.11394 8.06717 9.12402 8.06717 9.1449V10.7167C8.06717 10.7375 8.05709 10.7476 8.03621 10.7476H7.93685C7.91597 10.7476 7.90589 10.7375 7.90589 10.7167V9.97506H7.06781V10.7167C7.06781 10.7375 7.05773 10.7476 7.03685 10.7476H6.93749C6.91661 10.7476 6.90653 10.7375 6.90653 10.7167ZM5.29661 9.2241V9.14922C5.29661 9.12906 5.30669 9.11898 5.32757 9.11898H6.40685C6.42701 9.11898 6.43781 9.12906 6.43781 9.14922V9.2241C6.43781 9.24498 6.42701 9.25506 6.40685 9.25506H5.94677V10.7167C5.94677 10.7375 5.93669 10.7476 5.91581 10.7476H5.81429C5.79341 10.7476 5.78333 10.7375 5.78333 10.7167V9.25506H5.32757C5.30669 9.25506 5.29661 9.24498 5.29661 9.2241ZM35.7296 28.2191L18.6152 36.1262L1.26965 28.4193V8.14194L18.3848 0.234176L35.7296 7.94178V28.2191ZM18.3941 0.184496L18.3841 0.180176L1.23437 8.10378L1.21997 8.11026V28.451L18.6058 36.1751L18.6159 36.1802L35.7656 28.258L35.78 28.2508V7.9101L18.3941 0.184496ZM18.5245 29.9032V32.8415C18.5245 32.8552 18.5137 32.8667 18.5 32.8667C18.4863 32.8667 18.4748 32.8552 18.4748 32.8415V29.9032C18.4748 29.8903 18.4863 29.8787 18.5 29.8787C18.5137 29.8787 18.5245 29.8903 18.5245 29.9032ZM18.4748 6.8373V3.89898C18.4748 3.8853 18.4863 3.87378 18.5 3.87378C18.5137 3.87378 18.5245 3.8853 18.5245 3.89898V6.8373C18.5245 6.85098 18.5137 6.86178 18.5 6.86178C18.4863 6.86178 18.4748 6.85098 18.4748 6.8373ZM4.77533 24.8589H32.2232V24.8099H4.77533V24.8589ZM4.77533 11.8571H32.2232V11.8075H4.77533V11.8571ZM2.26973 8.72514L18.3905 1.27746L34.7302 8.53794V27.6352L18.6087 35.0836L2.26973 27.8239V8.72514ZM2.17037 8.6625V27.8879L18.5885 35.1823L18.6094 35.1916L34.8001 27.7115L34.8289 27.6986V8.47314L18.4107 1.17738L18.3898 1.16874L2.19917 8.64882L2.17037 8.6625Z" fill="#616161"/>
</svg>
