<svg width="27" height="34" viewBox="0 0 27 34" fill="none" xmlns="http://www.w3.org/2000/svg">
<path fill-rule="evenodd" clip-rule="evenodd" d="M21.9492 14.0393C21.9492 14.0393 21.9492 11.3292 20.0254 8.71564C18.7805 7.02292 16.416 5.43748 13.3992 5.00692C9.8698 4.50292 7.02076 4.63684 7.02076 4.63684H5.7262V12.5208H7.14604V6.67588L7.41892 6.6478C7.64644 6.62332 13.0536 6.09268 16.6457 8.4946C20.1255 10.8216 20.0952 14.4468 20.0808 16.1892L20.0787 16.4636C20.0787 17.5781 20.0736 20.996 20.07 22.7362H21.9492V14.0393ZM19.471 16.4636C19.471 17.5781 19.4645 20.9967 19.4609 22.7362H17.4622V16.0553C17.4622 8.85316 9.17788 9.1606 9.17788 9.1606V12.5208H7.75444V7.23748C8.8942 7.16332 13.3431 7.02292 16.3088 9.00653C19.5142 11.1492 19.4854 14.5498 19.4724 16.1842L19.471 16.4636ZM17.2757 29.7396L15.6658 24.6471H14.0321L12.3905 29.7396H13.6131L13.8392 28.9829L14.3187 27.3507L14.7629 25.6277H14.7795L15.2057 27.1937L15.6363 28.6107H15.6413L15.7544 29.0002L15.7551 29.0024L15.9696 29.7396H17.2757ZM20.6993 24.6471H22.0616L20.4034 26.9331L22.0616 29.7396H20.6662L19.2456 27.1304H19.2298V29.7396H17.99V24.6471H19.2298V26.8272H19.2456L20.6993 24.6471ZM5.77228 29.7396V24.6471H7.76812L8.69548 28.1103H8.71204L9.697 24.6471H11.6266V29.7396H10.4199V25.812H10.4033L9.26212 29.7396H8.07988L6.99628 25.812H6.979V29.7396H5.77228ZM8.9194 22.7362V16.9128C9.81364 17.0187 10.4573 17.3117 10.9282 17.7452C11.7792 18.5278 11.7663 19.35 11.7663 19.35V22.7362H14.9595V19.0023C14.9595 17.3643 14.0926 15.9574 13.0061 15.187C11.5236 14.1358 9.69556 14.0393 9.69556 14.0393H5.7262V22.7362H8.9194ZM0.540039 33.74H26.46V0.619965H0.540039V33.74ZM1.67404 32.4296H25.3253V1.93036H1.67404V32.4296Z" fill="#AAAAAA"/>
</svg>
