<svg width="36" height="36" viewBox="0 0 36 36" fill="none" xmlns="http://www.w3.org/2000/svg">
<g style="mix-blend-mode:luminosity">
<g style="mix-blend-mode:luminosity">
<path d="M32.4219 25.8725H3.1327C2.85988 25.8725 2.60901 26.0199 2.47103 26.2551C2.33619 26.4934 2.33932 26.785 2.4773 27.0202C4.02329 29.6262 6.22782 31.8087 8.84629 33.3359C11.5463 34.907 14.632 35.738 17.7742 35.738C20.9163 35.738 24.002 34.907 26.702 33.3359C29.3205 31.8119 31.525 29.6262 33.071 27.0202C33.209 26.785 33.2121 26.4934 33.0773 26.2551C32.9487 26.0199 32.6947 25.8725 32.4219 25.8725Z" fill="#8C8C8C"/>
<path d="M34.1592 11.0366C33.2624 8.9199 31.9798 7.01955 30.3491 5.38575C28.7153 3.75509 26.815 2.47251 24.6983 1.57565C22.5063 0.650559 20.1794 0.180176 17.7774 0.180176C15.3784 0.180176 13.0484 0.650559 10.8564 1.57878C8.73972 2.47565 6.83624 3.75509 5.20557 5.38889C3.57178 7.02268 2.29233 8.92303 1.39547 11.0398C0.470383 13.2317 0 15.5586 0 17.9575C0 20.1652 0.401394 22.3227 1.19164 24.3673C1.30767 24.6683 1.59617 24.8533 1.90035 24.8533C1.99129 24.8533 2.08537 24.8377 2.17631 24.8032C2.56829 24.6526 2.76272 24.2136 2.60906 23.8216C1.8878 21.9526 1.52091 19.9802 1.52091 17.9607C1.52091 15.7655 1.95052 13.6363 2.80035 11.6324C3.61882 9.6976 4.79164 7.95718 6.28432 6.4645C7.777 4.97181 9.51742 3.79899 11.4523 2.98052C13.4561 2.13383 15.5854 1.70422 17.7805 1.70422C19.9756 1.70422 22.1049 2.13383 24.1087 2.98052C26.0436 3.79899 27.784 4.97181 29.2767 6.4645C30.7693 7.95718 31.9422 9.6976 32.7606 11.6324C33.6073 13.6363 34.0369 15.7655 34.0369 17.9607C34.0369 19.9802 33.67 21.9526 32.9488 23.8216C32.7983 24.2136 32.9927 24.6526 33.3847 24.8032C33.7767 24.9537 34.2157 24.7593 34.3662 24.3704C35.1564 22.3258 35.5578 20.1683 35.5578 17.9607C35.5547 15.5586 35.0843 13.2317 34.1592 11.0366Z" fill="#8C8C8C"/>
</g>
<path d="M9.10661 28.5568H8.75853V29.1871H7.70801V29.4756H10.4206H10.4801V29.416V29.1871H9.10661V28.5568Z" fill="white"/>
<path d="M9.76833 28.2275V28.3906C9.76833 28.5411 9.67425 28.8798 9.62408 29.0272L9.95962 29.0303C10.0756 28.7951 10.1164 28.5317 10.1164 28.3749V28.099C10.1164 27.9923 10.0286 27.9139 9.92826 27.9139H8.07495V28.1962H9.73697C9.75892 28.1993 9.76833 28.2087 9.76833 28.2275Z" fill="white"/>
<path d="M9.09413 29.6293C8.5234 29.6293 8.05615 29.8237 8.05615 30.2502C8.05615 30.6798 8.5234 30.8679 9.09413 30.8679C9.668 30.8679 10.1321 30.6767 10.1321 30.2502C10.1321 29.8237 9.668 29.6293 9.09413 29.6293ZM9.09413 30.5857C8.69274 30.5857 8.42305 30.476 8.42305 30.2533C8.42305 30.0307 8.69274 29.9178 9.09413 29.9178C9.49866 29.9178 9.76521 30.0307 9.76521 30.2533C9.76521 30.476 9.5018 30.5857 9.09413 30.5857Z" fill="white"/>
<path d="M12.277 29.6324C11.9039 29.6324 11.283 29.7453 11.283 30.2596C11.283 30.777 11.8411 30.8773 12.277 30.8773C12.7129 30.8773 13.268 30.7801 13.268 30.2596C13.268 29.7421 12.7129 29.6324 12.277 29.6324ZM12.2802 30.5951C11.9697 30.5951 11.6248 30.5324 11.6248 30.2627C11.6248 29.993 11.9697 29.9209 12.2802 29.9209C12.5844 29.9209 12.9293 29.9961 12.9293 30.2627C12.9324 30.5324 12.5844 30.5951 12.2802 30.5951Z" fill="white"/>
<path d="M11.6874 28.9927C11.8411 29.1871 12.1327 29.3846 12.3679 29.4819L12.5874 29.2498C12.3052 29.1275 11.8599 28.8735 11.8599 28.5505V28.2589H12.4432V27.9766H10.9254V28.2589H11.4993V28.5505C11.4993 28.8202 11.1763 29.1432 10.7341 29.3282L10.9536 29.554C11.2014 29.4568 11.515 29.209 11.6874 28.9927Z" fill="white"/>
<path d="M12.28 28.8014H12.9198V29.5948H13.2051H13.2647V29.5321V27.8857H12.9198V28.5066H12.28V28.8014Z" fill="white"/>
<path d="M15.8111 28.8202H15.1933V28.2244C15.1933 28.1272 15.1212 28.0362 15.0114 28.0362H13.7508V28.331H14.8076C14.8295 28.331 14.8421 28.3404 14.8421 28.3624L14.839 29.1589C14.839 29.7045 14.1334 30.0087 13.6755 30.1185L13.8574 30.3693C14.4595 30.2313 15.1964 29.8425 15.1964 29.1118H15.8142V30.8146H16.0996H16.1623V30.7519V27.8826H15.8142V28.8202H15.8111Z" fill="white"/>
<path d="M18.7527 28.8673H18.4172V27.8857H18.0691V30.7488H18.3545H18.4172V30.6861V29.162H18.7527V30.8178H19.0381H19.1008V30.7582V27.8857H18.7527V28.8673Z" fill="white"/>
<path d="M16.962 29.8551C16.94 29.8551 16.9306 29.8457 16.9306 29.8237V29.1714H17.5609H17.7491V28.9864V28.0112H16.5825V28.2903H17.3979V28.8641C17.3979 28.8861 17.3884 28.8986 17.3665 28.8986H16.5825V29.9586C16.5825 30.062 16.6609 30.1436 16.7707 30.1436C17.3069 30.1436 17.5797 30.1122 17.9247 30.062V29.7798C17.5201 29.8425 17.2348 29.8582 16.962 29.8551Z" fill="white"/>
<path d="M20.4116 29.2561C20.8788 29.2561 21.2269 28.9927 21.2269 28.5944C21.2269 28.1993 20.9008 27.9139 20.4116 27.9139C19.9161 27.9139 19.5806 28.1993 19.5806 28.5944C19.5806 29.0021 19.891 29.2561 20.4116 29.2561ZM20.4116 28.193C20.7283 28.193 20.8914 28.3655 20.8914 28.5976C20.8914 28.7983 20.7189 28.9801 20.4116 28.9801C20.0949 28.9801 19.9255 28.8108 19.9255 28.5976C19.9255 28.3812 20.1105 28.193 20.4116 28.193Z" fill="white"/>
<path d="M21.5781 30.8178H21.8729H21.9325V30.7582V27.8889H21.5781V30.8178Z" fill="white"/>
<path d="M19.4707 29.4913V29.7892H20.1982V30.8021H20.5494V29.7892C20.9352 29.7798 21.186 29.7641 21.415 29.692L21.4589 29.6763V29.6356V29.3941C21.1892 29.4568 20.8191 29.4882 20.4522 29.4882H19.4707V29.4913Z" fill="white"/>
<path d="M23.2432 28.9958C23.6258 28.9958 24.0241 28.8234 24.0241 28.4408C24.0241 28.0614 23.6258 27.8857 23.2432 27.8857C22.8607 27.8857 22.4624 28.0614 22.4624 28.4408C22.4624 28.8234 22.8607 28.9958 23.2432 28.9958ZM23.2432 28.1586C23.4753 28.1586 23.6854 28.2338 23.6854 28.4408C23.6854 28.6415 23.4722 28.723 23.2432 28.723C23.0237 28.723 22.8011 28.6384 22.8011 28.4408C22.8011 28.2401 23.0237 28.1586 23.2432 28.1586Z" fill="white"/>
<path d="M23.585 29.9147H24.4379V30.1969H24.7296H24.7891V30.1342V27.8857H24.4379V29.6199H23.585V29.9147Z" fill="white"/>
<path d="M23.1271 30.4916V30.0369H22.7759V30.6359C22.7759 30.7425 22.8637 30.824 22.964 30.824H24.7734H24.8362V30.7613V30.523H23.1585C23.1428 30.523 23.1271 30.5136 23.1271 30.4916Z" fill="white"/>
<path d="M22.9233 29.9084H23.2181H23.2808V29.8456V29.4286C23.6069 29.4286 24.0428 29.416 24.2655 29.3314L24.3094 29.3125V29.2749V29.024C24.0711 29.0836 23.6226 29.1244 23.24 29.1244H22.3369V29.4254H22.9233V29.9084Z" fill="white"/>
<path d="M27.0658 28.1742H26.3258V27.8481H25.9714V28.1742H25.2439V28.4721H27.0658V28.1742Z" fill="white"/>
<path d="M26.3383 29.761C26.6833 29.7014 26.9435 29.4662 26.9435 29.1589C26.9435 28.7983 26.5892 28.5411 26.1564 28.5411C25.7143 28.5411 25.3756 28.7983 25.3756 29.1589C25.3756 29.4788 25.6327 29.7077 25.9934 29.7641V30.0746H25.2031V30.3662H26.0749C26.5202 30.3662 26.9592 30.3505 27.1819 30.2659L27.2258 30.2471V30.2126V29.9742C26.9812 30.037 26.6488 30.0652 26.3415 30.0746V29.761H26.3383ZM25.7331 29.1558C25.7331 28.9582 25.9181 28.8265 26.1564 28.8265C26.401 28.8265 26.5798 28.9613 26.5798 29.1558C26.5798 29.3502 26.401 29.485 26.1564 29.485C25.9181 29.485 25.7331 29.3533 25.7331 29.1558Z" fill="white"/>
<path d="M27.3542 27.8857V30.8178H27.6427H27.7055V30.7582V27.8857H27.3542Z" fill="white"/>
<path d="M11.0601 9.98611C11.5336 10.6697 12.7974 11.3973 13.5312 11.6011L14.0549 11.0366C13.1831 10.7826 11.474 9.87949 11.474 8.94186V8.02618H10.6462V8.94186C10.6462 9.90772 8.91829 10.7826 8.03711 11.0366L8.58275 11.6074C9.40436 11.3596 10.574 10.6133 11.0601 9.98611Z" fill="#8C8C8C"/>
<path d="M11.4772 11.2405H10.6431V12.9182H7.77686V13.5955H14.1741H14.3183V13.4544V12.9182H11.4772V11.2405Z" fill="#8C8C8C"/>
<path d="M26.4387 7.73767H25.6108V14.4485H26.2945H26.4387V14.3074V10.8171H27.3763V10.1492H26.4387V7.73767Z" fill="#8C8C8C"/>
<path d="M23.262 10.1053V8.7443H24.7829V8.07635H20.9508V8.7443H22.4278V10.0771C22.4278 10.7544 21.4682 11.9147 20.5588 12.4603L21.1484 12.9746C21.6878 12.6579 22.4843 11.7987 22.87 11.2405C23.2181 11.7265 23.9832 12.5387 24.5195 12.8554L25.0714 12.3349C24.2529 11.8394 23.262 10.8171 23.262 10.1053Z" fill="#8C8C8C"/>
<path d="M19.2446 14.4485H19.9345H20.0788V14.3073V7.73138H19.2446V14.4485Z" fill="#8C8C8C"/>
<path d="M17.4259 9.79795H15.5506V8.03558H14.729V12.4948C14.729 12.7269 14.9109 12.9182 15.1743 12.9182H17.8116H18.2537V12.4948V8.03558H17.4259V9.79795ZM17.4259 12.1781V12.2471H17.3537H15.6259C15.5757 12.2471 15.5537 12.2251 15.5537 12.1781V10.4722H17.429V12.1781H17.4259Z" fill="#8C8C8C"/>
<path d="M11.7375 18.0579L12.2017 18.6067C12.9637 18.4028 14.0267 17.945 14.5285 17.3304C15.0522 17.9136 16.0713 18.4028 16.8679 18.6067L17.3194 18.0579C16.0776 17.7412 15.3501 17.2771 15.0679 16.7753L15.0302 16.7063H16.8961V16.0729H12.164V16.7063H14.0456L14.0111 16.769C13.6849 17.3053 13.0076 17.7286 11.7375 18.0579Z" fill="#8C8C8C"/>
<path d="M11.2295 19.5945H14.1082V20.1871C12.7786 20.2655 12.0574 20.7296 12.0574 21.4823C12.0574 22.329 12.9354 22.7868 14.5128 22.7868C16.0901 22.7868 16.9619 22.3007 16.9619 21.4823C16.9619 20.7202 16.25 20.2624 14.9204 20.1871V19.5945H17.633H17.7772V19.4533V18.9265H11.2295V19.5945ZM16.134 21.4823C16.134 21.8711 15.6448 22.1314 14.5128 22.1314C13.3776 22.1314 12.8915 21.8774 12.8915 21.4823C12.8915 21.1091 13.387 20.8112 14.5128 20.8112C15.6448 20.8143 16.134 21.1091 16.134 21.4823Z" fill="#8C8C8C"/>
<path d="M23.1113 19.7701H23.7793H23.9235V19.6289V15.9443H23.1113V19.7701Z" fill="#8C8C8C"/>
<path d="M20.2265 18.3338C20.5526 18.7634 21.3962 19.2934 22.0359 19.4972L22.5 18.9673C21.6627 18.6066 20.6091 18.0234 20.6091 17.2958V16.0352H19.7592V17.3115C19.7592 18.1206 18.8498 18.8262 17.9592 19.2432L18.5049 19.7512C19.2669 19.3687 19.8847 18.776 20.2265 18.3338Z" fill="#8C8C8C"/>
<path d="M19.157 22.2505C19.157 22.4983 19.3451 22.6739 19.5991 22.6739H23.4218H23.8671V22.2505V20.1652H19.157V22.2505ZM19.9566 20.8143H23.0674V21.9558V22.0279H22.9953H20.0319C19.9817 22.0279 19.9598 22.0059 19.9598 21.9558V20.8143H19.9566Z" fill="#8C8C8C"/>
</g>
</svg>
