<svg width="49" height="37" viewBox="0 0 49 37" fill="none" xmlns="http://www.w3.org/2000/svg">
<path fill-rule="evenodd" clip-rule="evenodd" d="M40.1929 14.8191C40.7065 14.7103 41.2168 14.6351 41.7175 14.6098C46.2251 14.3847 48.2907 17.8116 46.3324 22.263C44.3748 26.7159 39.1327 30.5059 34.6251 30.7303C33.1429 30.8048 31.9301 30.4765 31.0327 29.8541L31.0252 29.8712C28.4075 27.8821 25.8672 28.7863 22.4759 30.7446C19.1817 32.5771 15.6715 33.7269 12.365 33.8917C3.57971 34.3288 -0.448367 27.6495 3.36972 18.9737C7.18644 10.2958 17.4027 2.90651 26.1893 2.46875C33.5321 2.10213 37.5478 6.70955 36.4411 13.2985L36.4439 13.2972C36.4417 13.305 36.4402 13.3124 36.4387 13.3198C36.437 13.3286 36.4352 13.3375 36.4322 13.3471C36.4095 13.4827 36.3821 13.6207 36.355 13.7578L36.3481 13.7924C36.1145 15.6698 38.0515 15.2626 39.9115 14.8717C40.0065 14.8517 40.1013 14.8318 40.1956 14.8122L40.1929 14.8191ZM27.0388 19.3205C27.0388 19.3205 26.6209 19.3363 26.6147 19.3363C26.3445 19.3397 26.0661 19.4519 25.8527 19.6735C25.6756 19.8575 25.5716 20.062 25.5853 20.3205C25.601 20.6201 25.7091 21.1242 25.9102 21.6858C26.125 22.285 26.311 22.9129 26.3165 23.3493C26.3206 23.6017 26.2501 23.8452 26.101 24.0695C25.9546 24.2987 25.7276 24.4711 25.4307 24.5805C25.1462 24.6858 24.6612 24.7392 24.3773 24.7392C23.7337 24.7392 23.4047 24.562 23.3992 24.2146C23.3965 24.0709 23.4211 24.0059 23.5155 23.9033C23.6072 23.7987 23.785 23.7706 23.8753 23.7706C23.9581 23.7706 24.0326 23.7973 24.0921 23.8452C24.3014 23.9916 24.6106 24.0654 24.7727 24.0654C24.9307 24.0654 25.1407 24.0087 25.2556 23.8944C25.3644 23.7871 25.4416 23.5764 25.4321 23.3705C25.415 23.0066 25.2433 22.4724 25.0224 21.8821C24.8035 21.3 24.7248 20.9225 24.7146 20.5921C24.7105 20.2535 24.8431 19.9204 25.0771 19.5846C25.3226 19.233 25.7734 18.9019 26.2324 18.6933C26.6783 18.4888 26.9834 18.3581 27.1975 18.3581C27.4697 18.3581 27.627 18.5127 27.6325 18.7822C27.6339 18.9101 27.5696 19.036 27.4492 19.1352L27.4428 19.1403C27.3484 19.2172 27.2214 19.3205 27.0388 19.3205ZM39.8611 23.1885C39.9171 23.1181 39.9787 23.1051 40.0197 23.1051C40.1011 23.1051 40.1853 23.1585 40.1955 23.2788L40.1955 23.2791C40.1997 23.3396 40.2104 23.4972 39.714 23.9868C39.3624 24.3342 38.9014 24.731 38.4671 24.731C38.3576 24.731 38.1976 24.6892 38.0662 24.495C37.9753 24.3602 37.9205 24.1865 37.9048 23.9806C37.8966 23.8602 37.9103 23.6756 37.9493 23.4191C37.9483 23.4197 37.9471 23.4206 37.9459 23.4216C37.9446 23.4228 37.9435 23.4241 37.9431 23.4252C37.4992 23.9061 37.1148 24.246 36.8022 24.4368C36.4718 24.6359 36.2126 24.7323 36.0088 24.7323C35.7995 24.7323 35.5416 24.6174 35.4992 24.0709C35.4958 24.0244 35.4937 23.9745 35.4937 23.9245C35.4937 23.7631 35.5122 23.5791 35.5477 23.3746C35.5477 23.3746 35.5696 23.2563 35.5874 23.1585C35.3726 23.4286 35.0963 23.7207 34.7577 24.034C34.2707 24.4834 33.8979 24.7022 33.6175 24.7022C33.4923 24.7022 33.3754 24.6263 33.2741 24.4772C33.1859 24.3479 33.1346 24.192 33.123 24.0114C33.099 23.7207 33.1982 23.2419 33.4253 22.5504C33.6483 21.8664 33.809 21.4485 33.9137 21.2761C34.0388 21.0681 34.1695 20.9683 34.3111 20.9683C34.4315 20.9683 34.5484 21.0073 34.6606 21.0852C34.7824 21.1714 34.8487 21.274 34.8576 21.3924C34.8624 21.4532 34.8391 21.5394 34.7037 21.8021C34.5997 22.0011 34.5149 22.1331 34.4431 22.2056C34.3666 22.278 34.3465 22.3138 34.3431 22.3198C34.3426 22.3206 34.3425 22.3209 34.3425 22.3206L34.1531 22.9081C34.0354 23.2829 34.0067 23.4738 34.0067 23.573C34.0067 23.5846 34.0067 23.5948 34.0081 23.6037C34.0125 23.6713 34.0274 23.6911 34.0302 23.6948C34.0304 23.6951 34.0306 23.6953 34.0306 23.6954C34.0327 23.6954 34.0409 23.6961 34.0409 23.6961C34.1093 23.6961 34.3241 23.627 34.8521 22.9936C35.2618 22.4998 35.6586 21.9006 36.0307 21.2077C36.1216 21.0408 36.2666 20.8164 36.4718 20.8164C36.5731 20.8164 36.6695 20.8643 36.7612 20.9587C36.848 21.049 36.8952 21.1475 36.9034 21.2508V21.2761C36.9034 21.3479 36.8809 21.4683 36.7584 21.733C36.6292 22.0545 36.5142 22.4382 36.4198 22.8773C36.322 23.3404 36.2974 23.5777 36.2974 23.7002C36.2974 23.7193 36.2974 23.7358 36.2995 23.7501C36.3064 23.838 36.3274 23.8622 36.3311 23.8664C36.3314 23.8668 36.3316 23.867 36.3316 23.8671H36.3405C36.398 23.8671 36.584 23.8226 37.056 23.4074C37.4226 23.0839 37.8077 22.6872 38.1948 22.2337C38.1976 22.2309 38.1996 22.2289 38.201 22.2255C38.3084 21.8315 38.45 21.3814 38.6244 20.88C38.9069 20.0654 39.1264 19.4737 39.2797 19.1229C39.5026 18.6092 39.5676 18.5319 39.6175 18.4949C39.6866 18.443 39.7564 18.4176 39.8275 18.4176C39.9137 18.4176 40.0396 18.4484 40.1415 18.5928C40.2099 18.6906 40.2502 18.7904 40.2571 18.8876C40.2653 19.0011 40.2277 19.1482 40.1422 19.3397C39.7372 20.2029 39.3966 21.101 39.1258 22.0107C38.794 23.1318 38.7407 23.5805 38.755 23.7597C38.7591 23.8096 38.7714 23.8958 38.8008 23.8958C38.9281 23.8958 39.188 23.7987 39.385 23.642C39.5984 23.4724 39.7578 23.3206 39.8611 23.1885ZM28.573 21.9218C28.573 22.0517 28.5039 22.1796 28.3582 22.313C28.2023 22.4567 28.0265 22.5244 27.8213 22.5292C27.848 22.4567 27.9095 22.3247 28.0456 22.077C28.272 21.668 28.3938 21.6571 28.4068 21.6571C28.4287 21.6571 28.4622 21.6619 28.506 21.7104C28.5443 21.7528 28.5668 21.8137 28.573 21.8937V21.9218ZM32.1578 22.3377C32.1578 22.6126 32.0361 22.9526 31.7926 23.352C31.5436 23.7645 31.2844 23.9738 31.0245 23.9738C30.9875 23.9738 30.9581 23.9608 30.9307 23.9273C30.8945 23.8883 30.8753 23.8315 30.8699 23.757C30.8432 23.417 30.9745 22.9847 31.2584 22.471C31.6476 21.7699 31.822 21.7337 31.8521 21.7337C31.9184 21.7337 32.1134 21.7337 32.1551 22.272C32.1572 22.2932 32.1578 22.3144 32.1578 22.3377ZM32.9759 22.3903C32.9759 22.3636 32.9759 22.337 32.9725 22.3117C32.9328 21.7946 32.7201 21.4122 32.3405 21.1742C32.3405 21.168 32.3302 21.1174 32.3302 21.1174C32.3111 20.8725 32.1544 20.733 31.8979 20.733C31.7194 20.733 31.5744 20.8089 31.48 20.9546C31.4622 20.9772 31.4355 21.0039 31.3678 21.0039C31.2214 21.0039 31.0935 21.0586 30.9957 21.1639C30.8979 21.2672 30.8535 21.3869 30.863 21.5182C30.8678 21.5948 30.8446 21.6666 30.7898 21.7426C30.6469 21.9546 30.5251 22.1516 30.4246 22.3322C30.3658 22.3445 30.3083 22.3794 30.2577 22.4396C29.8213 22.9382 29.3897 23.3192 28.9752 23.5736C28.5703 23.8212 28.2112 23.9471 27.9095 23.9471C27.6831 23.9471 27.5791 23.8459 27.5607 23.6099C27.5593 23.5948 27.5579 23.5764 27.5579 23.5606C27.5579 23.4827 27.5696 23.3876 27.5928 23.2788C27.599 23.2501 27.6045 23.2282 27.6099 23.2077C27.6859 23.2467 27.7638 23.272 27.8473 23.272C28.2823 23.272 28.6585 23.1106 28.9663 22.7891C29.2467 22.4963 29.3883 22.1687 29.3883 21.8164C29.3883 21.7822 29.387 21.7467 29.3856 21.7132C29.3705 21.5353 29.3083 21.3869 29.1995 21.2747C29.0887 21.1591 28.9506 21.0969 28.7891 21.088C28.788 21.088 28.7867 21.0877 28.7852 21.0874C28.7832 21.0871 28.7809 21.0866 28.7782 21.0866C28.7372 20.9149 28.6024 20.8164 28.4034 20.8164C28.1735 20.8164 27.9184 20.9998 27.599 21.3924C27.3062 21.7521 27.0764 22.1625 26.9157 22.6126C26.7508 23.0723 26.6817 23.4341 26.7029 23.7207C26.7255 24.0196 26.8329 24.2665 27.0224 24.4539C27.2139 24.6448 27.4362 24.7426 27.6838 24.7426C28.0265 24.7426 28.4177 24.6379 28.8439 24.4307L28.8445 24.4293C29.2378 24.2392 29.6257 23.9553 30.0026 23.5846C29.9848 23.7221 29.9807 23.8479 29.9889 23.958C30.0032 24.1591 30.0908 24.3411 30.2447 24.5018C30.4041 24.6653 30.5703 24.7488 30.7372 24.7488C31.1209 24.7488 31.5176 24.5942 31.9198 24.2898C32.3179 23.9888 32.6004 23.6393 32.7604 23.2501C32.9048 22.902 32.9759 22.6174 32.9759 22.3903ZM17.22 13.2931C17.1057 14.6071 17.5346 15.3547 18.6092 15.7213C19.1181 15.893 19.0832 16.1912 19.0592 16.2788C18.9895 16.5428 18.6482 16.7076 18.2973 16.6454C16.8034 16.3841 15.7466 15.0599 15.7466 13.5106C15.7466 13.421 15.7501 13.3321 15.7576 13.2418C15.7767 12.9976 15.9197 12.7979 16.1481 12.6891C16.4128 12.5653 16.7419 12.5838 16.9648 12.7363C17.1481 12.8622 17.2384 13.0599 17.22 13.2931ZM28.1674 8.91757C28.6387 8.74384 29.216 8.83549 29.5395 9.13235C29.7953 9.36628 29.876 9.70417 29.7638 10.0817C28.4341 14.5784 26.6222 16.644 23.075 17.7056C22.5196 17.8711 22.2262 17.6755 22.1441 17.4573C22.0442 17.1892 22.22 16.8014 22.7494 16.5743C24.547 15.8041 26.995 14.2528 27.5101 9.69528C27.5491 9.33823 27.7905 9.05437 28.1674 8.91757ZM21.3903 22.3506C21.4861 22.2255 21.59 22.1995 21.6612 22.1995C21.7973 22.1995 21.9416 22.2884 21.9594 22.4929C21.9697 22.6174 21.9245 22.8336 21.4915 23.4006C21.1954 23.7884 20.9184 23.9957 20.5599 24.2474C20.1085 24.5661 19.6078 24.7563 19.2186 24.7563C18.932 24.7563 18.6591 24.5996 18.4094 24.2912C18.1762 24.0025 18.0469 23.6988 18.023 23.3862L18.0483 23.0196L18.0661 22.891C18.3096 20.772 18.5196 19.8178 19.538 17.142C19.7487 16.5927 20.2275 16.2658 20.8212 16.2658C20.9532 16.2658 21.0805 16.3314 21.2227 16.473C21.3568 16.6064 21.4314 16.7706 21.4457 16.9621C21.458 17.1201 21.4108 17.2576 21.3582 17.3828C20.2863 19.9115 19.6687 21.4293 19.4512 23.2077C19.4471 23.2337 19.4443 23.2809 19.4649 23.3035C19.4833 23.3233 19.5271 23.3363 19.5784 23.3363C19.9437 23.3363 20.2391 23.2706 20.5114 23.129C20.8335 22.9601 21.1208 22.7056 21.3903 22.3506ZM21.6967 13.4012C21.8876 13.4361 22.0387 13.5298 22.1345 13.6755C22.2597 13.8677 22.2795 14.1358 22.1899 14.4744C22.0545 14.9922 21.9149 15.3417 21.6065 15.5893H21.6051C21.365 15.7836 21.1434 15.8581 20.9259 15.8198C20.6926 15.7788 20.5298 15.577 20.5285 15.3321C20.5244 14.8663 20.6062 14.4646 20.6657 14.1726L20.666 14.1714L20.679 14.103L20.681 14.0784C20.681 14.0784 20.694 13.9737 20.6967 13.9716C20.7993 13.5777 21.248 13.3218 21.6967 13.4012ZM17.5066 19.9197C17.5066 19.9115 17.5066 19.9033 17.5059 19.8951C17.4977 19.7631 17.3937 19.6249 17.1776 19.6249C17.1639 19.6263 16.8732 19.6427 16.8732 19.6427L16.5934 19.6434L16.5045 19.642C16.5538 19.4224 16.6283 19.1044 16.668 18.9847L16.7268 18.8479L16.8595 18.5237L16.8992 18.3971L16.9059 18.3757C16.9736 18.1602 17.0332 17.9706 17.0332 17.7925C17.0332 17.7726 17.0326 17.7528 17.0305 17.7336C17.0168 17.549 16.945 17.3814 16.8191 17.2323C16.6755 17.0674 16.5127 16.9847 16.3335 16.9847C16.1693 16.9847 15.9313 17.0394 15.7343 17.3041C15.5756 17.5161 15.3383 18.3588 15.2713 18.657L15.1728 19.0531C15.1728 19.0531 15.0681 19.471 15.049 19.5394C15.0428 19.5394 15.0339 19.5408 15.0339 19.5408H11.7924C11.843 19.3841 11.9388 19.0907 11.9388 19.0907L12.4443 17.5544L13.1351 15.6659C13.1727 15.5435 13.1912 15.421 13.1912 15.2931C13.1912 15.2596 13.1898 15.2241 13.1871 15.1892C13.1673 14.9354 13.0654 14.7268 12.8855 14.564C12.7049 14.4026 12.5216 14.3205 12.343 14.3205C12.1337 14.3205 11.8499 14.432 11.6885 14.9614L10.5722 18.5948C10.3553 19.2939 10.2787 19.5141 10.2507 19.5846C10.2356 19.5907 10.2055 19.6051 10.2055 19.6051C10.0612 19.6564 9.90801 19.735 9.75069 19.8397C9.67408 19.8903 9.44631 20.0428 9.44631 20.2706C9.44631 20.2755 9.44684 20.2802 9.44736 20.2848C9.44787 20.2892 9.44836 20.2936 9.44836 20.298C9.46341 20.4888 9.60636 20.6393 9.84713 20.7569C9.79515 20.9225 9.58379 21.7289 9.41074 22.4102C9.24042 23.0743 9.15766 23.5894 9.15766 23.9772C9.15766 24.0388 9.15903 24.0976 9.16245 24.155C9.21101 24.7761 9.54344 24.8678 9.73701 24.8678C10.066 24.8678 10.3752 24.6694 10.6843 24.2604C10.9682 23.8855 11.103 23.6037 11.103 23.378C11.103 23.3643 11.103 23.3493 11.1002 23.3349C11.0804 23.0743 10.932 22.891 10.696 22.813C10.709 22.7255 10.7514 22.5258 10.8964 22.0887L10.9621 21.8835C10.969 21.8624 10.9762 21.8405 10.9836 21.8179C11.0967 21.4736 11.2635 20.9654 11.3129 20.88C11.356 20.8089 11.3827 20.7973 11.3827 20.7973C11.3827 20.7973 14.0585 20.746 14.7548 20.733C14.6748 21.0428 14.5168 21.7248 14.3786 22.3958C14.1214 23.6268 14.1174 23.7089 14.1153 23.7508L14.1153 23.7515L14.1173 23.9834C14.1693 24.6434 14.4477 24.7843 14.6734 24.7843C15.0093 24.7843 15.3369 24.4649 15.7029 23.7829C16.1105 23.021 16.1823 22.7248 16.1823 22.5654C16.1823 22.555 16.1817 22.5458 16.181 22.5371C16.1808 22.5332 16.1805 22.5295 16.1803 22.5258C16.1611 22.2816 16.025 22.1625 15.8745 22.1208C15.8957 22.01 15.9477 21.7576 16.0797 21.1974L16.1803 20.772L16.2289 20.5647C16.5339 20.5333 16.7412 20.484 17.0148 20.3753C17.2453 20.2815 17.5066 20.1482 17.5066 19.9197Z" fill="#AAAAAA"/>
</svg>
