<svg width="76" height="22" xmlns="http://www.w3.org/2000/svg" xmlns:xlink="http://www.w3.org/1999/xlink"><defs><path id="a" d="M0 21.985h75.558V0H0z"/></defs><g fill="none" fill-rule="evenodd"><path d="M47.686 12.853c-.587.627-1.327.942-2.214.942-.885 0-1.62-.31-2.198-.927-.58-.62-.87-1.427-.87-2.429 0-.97.295-1.764.88-2.387.587-.622 1.32-.936 2.2-.936.898 0 1.64.308 2.215.923.581.617.87 1.42.87 2.4 0 .986-.293 1.79-.883 2.414m.755-7.633a5.906 5.906 0 00-3.007-.813c-1.469 0-2.775.52-3.91 1.562-1.294 1.195-1.94 2.687-1.94 4.481 0 1.675.573 3.095 1.716 4.267 1.149 1.173 2.526 1.76 4.147 1.76a5.9 5.9 0 003.019-.8 5.818 5.818 0 002.164-2.208 6.122 6.122 0 00.79-3.038c0-1.077-.258-2.08-.787-3.008a5.819 5.819 0 00-2.192-2.203" fill="#919191"/><mask id="b" fill="#fff"><use xlink:href="#a"/></mask><path fill="#919191" mask="url(#b)" d="M53.38 16.368h2.817V.001H53.38zm8.345-11.865h-2.82v10.311c0 3.028-.166 4.061-2.445 4.257v2.915c5.301 0 5.265-4.403 5.265-6.378V4.503zm-39.567 7.199a3.241 3.241 0 01-1.704 1.735 3.179 3.179 0 01-2.474 0 3.201 3.201 0 01-1.015-.7 3.224 3.224 0 01-.939-2.294c0-.448.084-.875.252-1.268a3.207 3.207 0 011.702-1.741c.379-.167.8-.253 1.238-.253.435 0 .855.086 1.236.253.389.17.73.403 1.018.696a3.289 3.289 0 01.933 2.313c0 .447-.084.871-.247 1.259M23.41 6.16a5.86 5.86 0 00-8.388.003 5.885 5.885 0 00-1.29 1.965 6.149 6.149 0 00-.004 4.612 6.058 6.058 0 001.294 1.968 5.953 5.953 0 001.91 1.304 5.77 5.77 0 002.285.465c1.956 0 3.187-1.32 3.187-1.32v1.208h2.745v-5.922c0-.8-.15-1.582-.444-2.315A6.01 6.01 0 0023.41 6.16m49.158 5.542c-.17.397-.4.746-.685 1.035-.289.294-.63.528-1.02.7a3.175 3.175 0 01-2.472 0 3.215 3.215 0 01-1.017-.7 3.204 3.204 0 01-.689-1.035 3.18 3.18 0 01-.249-1.259c0-.448.083-.875.252-1.268a3.2 3.2 0 011.704-1.741c.38-.167.8-.253 1.235-.253.437 0 .856.086 1.236.253.39.17.731.403 1.02.696.285.294.516.643.685 1.046.163.392.249.82.249 1.267 0 .447-.086.871-.25 1.259m1.254-5.542a5.862 5.862 0 00-8.389.003 5.947 5.947 0 00-1.29 1.965 6.146 6.146 0 00-.002 4.612 6.08 6.08 0 001.292 1.968 5.94 5.94 0 001.911 1.304c.72.308 1.489.465 2.284.465 1.959 0 3.19-1.32 3.19-1.32v1.208h2.741v-5.922c0-.8-.149-1.582-.445-2.315a5.95 5.95 0 00-1.292-1.968m-43.62 4.453v5.755h-2.816V4.516h2.84v1.028a3.07 3.07 0 01.621-.474 4.874 4.874 0 011.592-.593c.282-.054.552-.08.814-.08a4.97 4.97 0 011.65.276c.529.186.997.472 1.409.855.41.385.739.882.99 1.49.244.611.37 1.342.37 2.177v7.173h-2.817v-6.43c0-.33-.014-.602-.035-.831v-.001c-.01-.14-.063-.409-.063-.409-.21-1.105-1.2-1.866-2.216-1.773 0 0-1.411.054-2.001 1.392 0 0-.355.627-.338 2.297M8.083 16.184l4.995-11.68H9.85l-3.326 7.998L3.23 4.503H0l4.953 11.68-2.483 5.803h3.135l2.478-5.8h.003z"/></g></svg>