<svg xmlns="http://www.w3.org/2000/svg" width="25" height="25" viewBox="0 0 25 25">
    <path fill="#AAA" fill-rule="nonzero" d="M21.592 6.683c-.344-.453-.93-.805-1.555-.922-1.831-.348-13.266-.348-15.098 0-.5.094-.945.32-1.328.672C2 7.93 2.505 15.953 2.893 17.251c.164.564.375.97.64 1.235.344.352.812.595 1.352.703 1.51.311 9.284.486 15.122.047a2.617 2.617 0 0 0 1.39-.711c1.489-1.49 1.387-9.963.195-11.842zm-11.104 8.404V9.474c1.992.937 3.534 1.844 5.36 2.82-1.504.835-3.368 1.77-5.36 2.793z"/>
</svg>
